<?xml version="1.0" encoding="utf-8"?>
<svg version="1.1" id="Layer_1" xmlns="http://www.w3.org/2000/svg" xmlns:xlink="http://www.w3.org/1999/xlink" x="0px" y="0px"
	 viewBox="0 0 1164.46 906.67" style="enable-background:new 0 0 1164.46 906.67;" xml:space="preserve">
<style type="text/css">
	.st0{fill:#EE0030;}
</style>
<g id="Bildmarke">
	<path class="st0" d="M421.06,476.28c-3.99,0-7.23-3.24-7.23-7.23v-190.9c0-0.91-1.1-1.37-1.75-0.73l-104.52,103.9
		c-0.65,0.65-0.19,1.76,0.72,1.76h48.1c0.57,0,1.03,0.46,1.03,1.03v92.18h-0.01v6.52c0,22.29,19.45,39.59,41.59,37l371.89-22.77
		c1.43-0.09,2.8-0.64,3.89-1.57l20.32-17.37c0.73-0.62,0.29-1.81-0.67-1.81H421.06z"/>
	<path class="st0" d="M541.66,356.89c-3.99,0-7.23-3.24-7.23-7.23V158.72c0-0.9-1.09-1.35-1.72-0.72L428.13,261.96
		c-0.64,0.64-0.19,1.73,0.71,1.73H477c0.56,0,1.01,0.45,1.01,1.01v92.2h-0.01v6.52c0,22.29,19.45,39.59,41.59,37l371.89-22.77
		c1.43-0.09,2.8-0.64,3.89-1.57l20.35-17.4c0.71-0.61,0.28-1.78-0.66-1.78H541.66z"/>
</g>
<g id="Wortmarke">
	<path d="M208.65,652.08l-13.55-3.77c-7.44-2.03-10.21-4.48-10.21-9.06c0-5.27,3.88-8.42,10.38-8.42c7.61,0,10.59,6.18,10.83,11.48
		l0.04,1.01h25.43l-0.03-1.09c-0.66-20.18-15.52-34.28-36.12-34.28c-22.59,0-37.77,13.61-37.77,33.86
		c0,15.25,9.33,25.46,27.72,30.37l14,3.76c6.35,1.69,9.44,5.05,9.44,10.26c0,6-5.3,10.53-12.33,10.53c-8.29,0-13-4.29-14-12.76
		l-0.11-0.93H155.9l0.1,1.15c1.94,22.18,16.85,35.43,39.88,35.43c19.75,0,40.19-13.29,40.19-35.52
		C236.06,667.47,227.35,657.3,208.65,652.08z"/>
	<path d="M280.16,611.1l-26.79,3.69v24.76h-13.09v22.43h13.09v28.74c0,18.44,9.78,28.6,27.54,28.6c5.07,0,12.22-1.04,15-2.19
		l0.66-0.27v-21.72l-1.38,0.43c-2.56,0.8-4.87,1.16-7.51,1.16c-5.27,0-7.52-2.25-7.52-7.52v-27.23h17.15v-22.43h-17.15V611.1z"/>
	<path d="M365.93,648c-4.63-6.33-13.17-10.25-22.87-10.25c-22.22,0-38.98,17.53-38.98,40.79s16.76,40.79,38.98,40.79
		c9.41,0,18.04-4.03,23.32-10.72v8.91h25.89v-77.96h-26.34V648z M348.02,696.73c-9.94,0-17.15-7.66-17.15-18.2
		c0-10.55,7.21-18.2,17.15-18.2c10.11,0,17.45,7.66,17.45,18.2C365.47,689.08,358.13,696.73,348.02,696.73z"/>
	<path d="M457.44,637.74c-9.41,0-18.04,4.04-23.32,10.72v-8.92h-25.89v109.41l26.79-3.53v-36.32c4.58,6.38,12.81,10.21,22.42,10.21
		c22.22,0,38.98-17.53,38.98-40.79S479.66,637.74,457.44,637.74z M452.47,660.33c9.93,0,17.15,7.66,17.15,18.2
		c0,10.55-7.21,18.2-17.15,18.2c-10.11,0-17.45-7.66-17.45-18.2C435.02,667.98,442.36,660.33,452.47,660.33z"/>
	<polygon points="508.3,717.51 535.1,717.51 535.1,607.72 508.3,611.26 	"/>
	<path d="M588.06,637.74c-24.46,0-41.54,16.71-41.54,40.64c0,24.87,16.72,40.94,42.59,40.94c18.63,0,34.57-10.51,39.68-26.16
		l0.45-1.39h-24.77l-0.31,0.51c-2.74,4.46-8.22,7.02-15.05,7.02c-8.73,0-14.11-4.1-16.01-12.18h56.34v-8.43
		C629.45,654.19,612.82,637.74,588.06,637.74z M573.06,669.8c1.6-8.25,6.99-12.78,15.3-12.78c8.05,0,13.65,4.75,15.16,12.78H573.06z
		"/>
	<path d="M667.68,649.89v-10.34h-26.04v77.96h26.79v-32.66c0-14.04,4.89-19.26,18.05-19.26h6.03v-26.65h-3.47
		C678.67,638.95,671.51,642.62,667.68,649.89z"/>
	<path d="M760.23,632.34c12.58,0,22.31,6.07,26.71,16.65l0.27,0.65h27.48l-0.31-1.3c-4.59-19.45-23.44-40.39-54-40.39
		c-33.22,0-57.34,23.48-57.34,55.83c0,32.35,24.11,55.84,57.34,55.84c30.56,0,49.41-20.94,54-40.39l0.31-1.3h-27.48l-0.27,0.65
		c-4.39,10.58-14.13,16.65-26.71,16.65c-17.91,0-29.49-12.34-29.49-31.44C730.74,644.68,742.31,632.34,760.23,632.34z"/>
	<path d="M875.35,684.1c0,7.65-4.11,12.03-11.28,12.03c-8.83,0-10.68-6.63-10.68-12.18v-44.4h-26.8v48.16
		c0,20.09,10.2,31.61,28,31.61c8.79,0,16.96-4,21.51-10.26v8.46h26.04v-77.96h-26.79V684.1z"/>
	<path d="M967.31,637.74c-9.41,0-18.04,4.04-23.32,10.72v-8.92H918.1v109.41l26.79-3.53v-36.32c4.58,6.38,12.81,10.21,22.42,10.21
		c22.22,0,38.98-17.53,38.98-40.79S989.53,637.74,967.31,637.74z M962.34,660.33c9.93,0,17.15,7.66,17.15,18.2
		c0,10.55-7.21,18.2-17.15,18.2c-10.11,0-17.45-7.66-17.45-18.2C944.89,667.98,952.23,660.33,962.34,660.33z"/>
</g>
</svg>
